<?xml version="1.0" standalone="no"?>
<!DOCTYPE svg PUBLIC "-//W3C//DTD SVG 20010904//EN"
 "http://www.w3.org/TR/2001/REC-SVG-20010904/DTD/svg10.dtd">
<svg version="1.0" xmlns="http://www.w3.org/2000/svg"
 width="300.000000pt" height="238.000000pt" viewBox="0 0 300.000000 238.000000"
 preserveAspectRatio="xMidYMid meet">
<metadata>
Created by potrace 1.10, written by Peter Selinger 2001-2011
</metadata>
<g transform="translate(0.000000,238.000000) scale(0.100000,-0.100000)"
fill="#fc9acf" stroke="none">
<path d="M1400 2174 c-252 -43 -447 -139 -600 -294 -128 -129 -204 -259 -261
-440 -32 -103 -33 -109 -33 -285 0 -167 2 -187 27 -268 109 -354 382 -606 757
-697 111 -27 324 -33 425 -11 219 46 445 166 573 305 53 58 141 192 177 271
121 264 123 543 6 815 -54 125 -102 192 -225 315 -146 145 -267 214 -464 266
-74 20 -316 35 -382 23z m405 -68 c284 -85 520 -290 631 -546 60 -138 78 -235
78 -405 -1 -133 -4 -160 -27 -238 -103 -339 -340 -575 -670 -671 -368 -107
-737 -15 -1003 249 -193 192 -275 387 -277 660 -1 202 53 383 166 549 58 86
167 197 250 254 143 98 260 144 447 176 14 3 90 3 170 1 123 -2 159 -7 235
-29z"/>
<path d="M1340 2036 c-129 -29 -205 -62 -315 -136 -192 -131 -328 -327 -380
-550 -23 -99 -20 -297 5 -396 40 -153 124 -300 238 -411 62 -62 179 -149 188
-140 2 2 -31 36 -74 75 -127 115 -194 216 -252 379 -33 94 -35 140 -7 157 22
14 51 -3 55 -32 5 -33 88 -119 166 -171 81 -55 136 -85 143 -78 2 3 -12 26
-31 51 -61 80 -87 157 -100 296 -18 191 103 374 273 414 92 21 122 43 156 111
41 82 46 179 15 294 -13 47 -19 86 -14 91 14 13 42 14 149 6 190 -14 282 -35
385 -86 147 -74 256 -237 289 -434 14 -80 7 -96 -34 -78 -31 15 -99 31 -175
42 -30 4 -68 11 -84 15 -27 7 -26 5 19 -39 103 -103 140 -284 95 -460 -43
-171 -165 -330 -309 -405 -43 -22 -86 -41 -95 -41 -9 0 -16 -4 -16 -10 0 -15
109 -12 175 6 100 25 112 37 146 137 63 190 153 341 246 412 26 20 90 57 142
82 l94 45 -7 67 c-6 71 -43 231 -56 244 -4 5 -6 -20 -3 -55 6 -78 -8 -132 -51
-195 -41 -60 -96 -93 -157 -93 -48 0 -69 13 -69 42 0 18 9 21 81 33 105 16
148 189 89 360 -57 166 -170 295 -321 369 -141 68 -265 96 -419 95 -69 -1
-150 -7 -180 -13z m24 -58 c3 -13 12 -53 20 -89 24 -97 22 -111 -11 -103 -16
4 -30 7 -33 7 -30 5 -133 -19 -180 -42 -182 -89 -320 -259 -350 -436 -11 -60
-10 -76 3 -107 19 -46 57 -59 99 -35 l28 16 0 -43 c0 -52 -6 -60 -34 -41 -11
8 -27 15 -35 15 -19 0 -61 -39 -61 -57 0 -8 -13 -13 -38 -13 -25 0 -48 -7 -62
-20 -29 -25 -40 -13 -40 43 l0 38 26 -20 c34 -27 52 -26 81 1 26 25 29 54 8
85 -23 32 -52 35 -85 6 l-30 -25 0 62 c0 313 261 647 590 754 94 31 99 31 104
4z m17 -234 c23 -27 -3 -48 -87 -69 -130 -33 -202 -79 -278 -179 -52 -68 -84
-139 -99 -221 -13 -74 -33 -99 -61 -76 -37 31 -5 180 64 295 67 111 207 217
331 250 72 19 114 19 130 0z m-6 -116 c-16 -51 -42 -68 -170 -108 -69 -22
-176 -110 -213 -175 -6 -11 -13 -17 -16 -14 -13 13 58 131 112 186 63 64 120
97 203 118 82 20 92 19 84 -7z m785 -257 c63 -15 74 -21 72 -37 -6 -31 -44
-62 -90 -72 -48 -11 -43 -15 -84 71 l-27 57 27 0 c15 -1 61 -9 102 -19z m221
-153 c-5 -14 -19 -28 -30 -31 -26 -6 -26 -6 0 38 24 40 46 35 30 -7z m-1613
-74 c4 -25 -20 -47 -42 -38 -16 6 -22 45 -9 58 14 14 48 1 51 -20z m1387 -72
c-39 -36 -40 -36 -43 -14 -6 40 5 52 45 52 l38 -1 -40 -37z m-1257 -8 c4 -25
-22 -49 -43 -40 -31 12 -9 70 25 64 8 -2 16 -13 18 -24z m61 -121 c12 -45 21
-84 21 -88 0 -12 -38 15 -84 59 -51 50 -59 76 -23 76 13 0 32 9 42 20 10 11
19 19 21 18 1 -2 12 -40 23 -85z"/>
<path d="M1165 1904 c-32 -35 -31 -49 4 -85 36 -35 41 -36 75 -4 33 30 33 59
1 90 -31 32 -50 31 -80 -1z m60 -64 c-19 -21 -19 -21 -39 -1 -19 20 -19 21 -1
41 19 21 19 21 39 1 19 -20 19 -21 1 -41z"/>
<path d="M1682 1895 c3 -3 48 -23 101 -44 54 -21 122 -54 153 -72 54 -33 129
-104 151 -144 7 -11 15 -16 19 -12 11 10 -62 112 -110 154 -52 44 -140 89
-213 108 -56 15 -111 20 -101 10z"/>
<path d="M1555 1853 c8 -16 26 -56 41 -89 30 -72 78 -122 150 -158 54 -27 206
-70 288 -82 l49 -7 -31 44 c-38 55 -105 119 -157 151 -22 14 -98 51 -170 82
-71 32 -140 64 -152 72 -31 20 -34 18 -18 -13z m168 -103 c14 -11 58 -36 97
-56 60 -29 71 -39 68 -57 -5 -37 -44 -33 -135 14 -87 43 -109 66 -98 99 8 26
35 25 68 0z m245 -150 c11 -18 10 -20 -12 -20 -28 0 -40 14 -32 35 7 18 28 11
44 -15z"/>
<path d="M1521 1683 c-1 -49 -34 -126 -75 -176 -42 -51 -97 -81 -178 -97 -75
-15 -134 -66 -174 -152 -26 -56 -29 -73 -28 -158 0 -75 5 -108 24 -155 55
-140 167 -267 289 -328 62 -31 84 -37 138 -37 150 0 291 93 390 259 61 102 76
163 71 285 -4 76 -10 112 -27 147 -28 58 -121 152 -198 198 -33 20 -75 50 -94
66 -43 38 -112 123 -127 155 -11 25 -11 25 -11 -7z m86 -151 c33 -31 90 -75
126 -96 36 -21 74 -47 84 -58 17 -19 17 -20 -2 -34 -24 -18 -37 -18 -96 3 -47
17 -49 17 -76 -3 -55 -41 -36 -106 41 -144 55 -26 124 -26 187 1 27 12 53 18
57 15 4 -4 7 -61 7 -125 0 -118 0 -118 -40 -197 -45 -89 -145 -198 -214 -233
-63 -33 -153 -51 -200 -40 -44 10 -124 45 -156 69 -44 33 -109 106 -146 163
-56 86 -82 179 -77 272 4 97 14 106 75 75 85 -42 179 -28 239 37 31 34 31 73
-1 103 -25 24 -26 24 -90 8 -35 -8 -70 -11 -77 -7 -20 13 2 28 54 37 88 17
175 87 222 180 9 17 18 32 19 32 1 0 30 -26 64 -58z m-388 -224 l45 -22 56 21
c62 22 90 17 90 -17 0 -23 -61 -67 -106 -76 -43 -8 -109 12 -146 45 -27 24
-29 30 -19 49 15 27 24 27 80 0z m493 2 c41 -25 71 -25 124 -1 48 22 74 13 74
-24 0 -63 -166 -88 -238 -36 -35 25 -41 54 -14 70 22 13 16 14 54 -9z"/>
<path d="M1441 1046 c-28 -29 -27 -48 5 -85 22 -27 32 -31 74 -31 38 0 53 5
74 26 35 35 37 64 9 96 -11 12 -31 17 -78 17 -52 0 -66 -4 -84 -23z m84 -19
c11 0 28 3 37 7 22 10 36 -19 21 -42 -22 -36 -113 -32 -127 5 -9 21 13 46 33
37 9 -4 25 -7 36 -7z"/>
<path d="M1418 891 c-18 -9 -39 -28 -48 -43 -13 -25 -13 -29 6 -54 35 -48 68
-65 130 -71 49 -4 66 -1 103 19 62 33 88 70 73 102 -20 44 -54 58 -147 61 -63
2 -94 -2 -117 -14z m73 -32 c14 -7 29 -7 53 2 28 10 41 10 73 -2 21 -8 39 -21
41 -29 4 -25 -64 -63 -123 -68 -45 -4 -61 0 -100 22 -52 31 -56 49 -17 70 33
18 47 19 73 5z"/>
<path d="M2221 968 c-72 -73 -117 -148 -159 -268 -17 -47 -33 -93 -37 -102
-20 -51 143 17 218 90 27 26 62 72 77 103 29 56 51 159 34 159 -5 -1 -25 -35
-43 -76 -36 -79 -142 -207 -182 -219 -20 -7 -49 9 -49 26 0 4 32 43 70 86 45
50 84 107 110 160 62 125 54 133 -39 41z"/>
<path d="M980 703 c0 -9 391 -293 498 -361 l67 -44 85 5 c140 7 269 54 424
154 69 44 82 62 32 43 -15 -5 -47 -10 -71 -10 -29 0 -65 -10 -102 -29 -82 -40
-166 -55 -276 -48 -163 10 -281 55 -459 174 -126 84 -198 126 -198 116z m663
-330 c53 -3 97 -9 97 -13 0 -11 -162 -24 -186 -16 -11 4 -30 16 -44 27 l-25
21 30 -7 c17 -3 74 -8 128 -12z"/>
<path d="M995 579 c59 -60 140 -120 229 -169 117 -64 88 -27 -55 68 -68 46
-141 96 -161 112 -53 43 -59 37 -13 -11z"/>
</g>
</svg>
